<?xml version="1.0" encoding="UTF-8" standalone="no"?>
<!-- Created with Inkscape (http://www.inkscape.org/) -->

<svg
   xmlns:dc="http://purl.org/dc/elements/1.1/"
   xmlns:cc="http://creativecommons.org/ns#"
   xmlns:rdf="http://www.w3.org/1999/02/22-rdf-syntax-ns#"
   xmlns:svg="http://www.w3.org/2000/svg"
   xmlns="http://www.w3.org/2000/svg"
   xmlns:sodipodi="http://sodipodi.sourceforge.net/DTD/sodipodi-0.dtd"
   xmlns:inkscape="http://www.inkscape.org/namespaces/inkscape"
   width="210mm"
   height="297mm"
   viewBox="0 0 210 297"
   version="1.1"
   id="svg8"
   inkscape:version="0.92.2 (5c3e80d, 2017-08-06)"
   sodipodi:docname="Logos.svg">
  <defs
     id="defs2" />
  <sodipodi:namedview
     id="base"
     pagecolor="#ffffff"
     bordercolor="#666666"
     borderopacity="1.0"
     inkscape:pageopacity="0.0"
     inkscape:pageshadow="2"
     inkscape:zoom="0.7"
     inkscape:cx="303.39197"
     inkscape:cy="500.09116"
     inkscape:document-units="mm"
     inkscape:current-layer="layer1"
     showgrid="false"
     inkscape:window-width="1920"
     inkscape:window-height="1001"
     inkscape:window-x="-9"
     inkscape:window-y="-9"
     inkscape:window-maximized="1" />
  <metadata
     id="metadata5">
    <rdf:RDF>
      <cc:Work
         rdf:about="">
        <dc:format>image/svg+xml</dc:format>
        <dc:type
           rdf:resource="http://purl.org/dc/dcmitype/StillImage" />
        <dc:title />
      </cc:Work>
    </rdf:RDF>
  </metadata>
  <g
     inkscape:label="Layer 1"
     inkscape:groupmode="layer"
     id="layer1">
    <rect
       style="fill:#33333d;fill-opacity:1;stroke:none;stroke-width:0.35070977;stroke-linejoin:round;stroke-miterlimit:4;stroke-dasharray:none;stroke-opacity:1"
       id="rect4528"
       width="196.54762"
       height="127.39223"
       x="8.3154764"
       y="6.322052" />
    <g
       id="g4534"
       transform="translate(-65.389881,-153.83631)"
       inkscape:export-xdpi="46.257008"
       inkscape:export-ydpi="46.257008">
      <path
         sodipodi:nodetypes="ccscccscccccccccscccsccccscccscsccccssscccccscccccscscsccscccccccc"
         inkscape:connector-curvature="0"
         id="path4522"
         d="m 122.10045,271.48327 c 1.7524,-0.43967 3.36875,-1.4023 4.90592,-2.92174 4.52871,-4.4765 5.8719,-10.90557 4.42543,-21.18208 -0.60475,-4.29645 -0.59202,-9.41268 0.0306,-12.31085 0.31734,-1.4771 1.96991,-5.16979 2.44502,-5.46342 0.48771,-0.30142 0.72178,0.56691 0.72584,2.69257 0.005,2.36985 -0.39961,3.30002 -1.43376,3.30002 -1.4936,0 -1.39321,1.73367 0.14649,2.52988 1.2341,0.63818 2.65007,0.16257 3.65785,-1.22862 1.02644,-1.41697 1.40044,-3.799 1.31441,-8.37159 -0.09,-4.78179 0.32937,-7.9055 1.35566,-10.09862 0.45193,-0.96575 0.89454,-1.60152 1.01889,-1.46354 0.27531,0.30547 0.81867,3.66805 0.83861,5.18971 0.032,2.43995 1.30005,4.10087 2.59983,3.40524 0.8248,-0.44142 6.16375,-5.77364 6.75949,-6.75097 0.30119,-0.49413 0.86874,-1.14925 1.26121,-1.45583 0.39247,-0.30659 1.18967,-1.41988 1.77155,-2.47399 0.58188,-1.05411 1.37385,-2.21129 1.75994,-2.57151 0.38609,-0.36023 1.18883,-1.34685 1.78388,-2.1925 0.6117,-0.86933 2.08025,-2.3337 3.37905,-3.36944 3.87329,-3.0888 4.52266,-4.00367 5.51671,-7.77224 0.2717,-1.03007 0.80251,-2.70629 1.17958,-3.72494 0.79433,-2.14584 0.91417,-4.50061 0.29045,-5.70675 -0.22346,-0.43213 -1.28064,-1.4323 -2.34929,-2.2226 -1.21641,-0.89958 -2.7884,-2.46479 -4.20371,-4.18558 -4.74218,-5.76571 -7.39708,-7.33194 -12.42833,-7.33194 -3.14972,0 -9.52981,1.55684 -13.1087,3.19872 l -1.93695,0.88862 -2.95784,-1.04331 c -3.85099,-1.35833 -5.29263,-1.39189 -8.32278,-0.19372 -3.19368,1.26283 -4.14568,1.33575 -5.89112,0.45127 -2.07698,-1.05248 -3.89032,-1.62835 -8.01996,-2.54693 -3.0782,-0.6847 -4.05336,-0.79572 -6.08541,-0.69279 -4.292468,0.21742 -6.114818,1.31453 -10.224898,6.15569 -1.04846,1.23495 -2.94513,3.0738 -4.21484,4.08634 -4.55154,3.62968 -5.95415,5.74843 -5.96504,9.01069 -0.006,1.6974 0.10317,2.1825 0.75261,3.35438 0.97222,1.75432 4.64165,5.537 7.74918,7.98835 2.98497,2.35467 6.44621,6.1513 7.48629,8.21168 0.42865,0.84915 1.21127,1.94624 1.73916,2.43798 0.527878,0.49174 1.147678,1.25126 1.377328,1.68782 0.5024,0.95506 6.34691,6.68396 7.04812,6.90871 0.63455,0.20338 1.79519,-0.65195 2.03659,-1.50085 0.10093,-0.35495 0.31907,-1.98101 0.48476,-3.61347 0.32024,-3.15523 0.46268,-3.77877 0.86324,-3.77877 0.49314,0 1.59415,2.96076 1.97055,5.29909 0.21067,1.30877 0.48738,2.65402 0.61491,2.98947 0.13596,0.35759 0.12696,1.14993 -0.0217,1.91535 -0.44335,2.28194 -0.35623,6.99276 0.15795,8.5408 0.88625,2.66826 2.63551,3.88428 4.47933,3.11388 1.54047,-0.64364 1.69345,-2.544 0.2048,-2.544 -0.60663,0 -0.83993,-0.16895 -1.09984,-0.79641 -0.57328,-1.38401 -0.35817,-5.81818 0.28225,-5.81818 0.40021,0 1.56618,2.56281 2.0834,4.57931 0.26845,1.04664 0.84613,3.21267 1.28373,4.8134 1.45374,5.31776 2.95492,12.15129 3.20911,14.60827 0.4414,4.26639 -0.30261,7.20674 -2.39905,9.48111 -1.42091,1.5415 -2.25948,1.97208 -3.84071,1.97208 -1.22827,0 -1.31439,-0.055 -3.34519,-2.13547 -1.54116,-1.57887 -2.1987,-2.0865 -2.52272,-1.9476 -0.24105,0.10334 -1.15264,0.24496 -2.02576,0.31472 -0.87313,0.0698 -1.73633,0.24638 -1.91823,0.39249 -0.66868,0.5371 -0.34501,1.54008 0.94509,2.92868 0.7017,0.75527 1.83823,2.11538 2.52562,3.02247 2.54249,3.35509 6.26266,4.84289 9.85542,3.94146 z"
         style="fill:#f1637f;fill-opacity:1;stroke-width:0.26458332" />
      <text
         id="text4506"
         y="261.38687"
         x="134.02377"
         style="font-style:normal;font-variant:normal;font-weight:normal;font-stretch:normal;font-size:45.84326553px;line-height:1.25;font-family:'DejaVu Sans Mono';-inkscape-font-specification:'DejaVu Sans Mono';letter-spacing:0px;word-spacing:0px;fill:#f1637f;fill-opacity:1;stroke:none;stroke-width:1.14608169"
         xml:space="preserve"><tspan
           style="font-style:normal;font-variant:normal;font-weight:normal;font-stretch:normal;font-family:'DejaVu Sans Mono';-inkscape-font-specification:'DejaVu Sans Mono';fill:#f1637f;fill-opacity:1;stroke-width:1.14608169"
           y="261.38687"
           x="134.02377"
           id="tspan4504"
           sodipodi:role="line"><tspan
             id="tspan4524"
             style="font-style:normal;font-variant:normal;font-weight:normal;font-stretch:normal;font-family:'Old English Text MT';-inkscape-font-specification:'Old English Text MT';fill:#f1637f;fill-opacity:1;stroke-width:1.14608169">ocelyn</tspan></tspan></text>
    </g>
    <rect
       style="fill:#33333d;fill-opacity:1;stroke:none;stroke-width:0.40091252;stroke-linejoin:round;stroke-miterlimit:4;stroke-dasharray:none;stroke-opacity:1"
       id="rect4528-3"
       width="180.8869"
       height="180.8869"
       x="-21.922621"
       y="115.37138"
       inkscape:export-filename="C:\Users\Pieter-Jan Van Damme\Downloads\app-logo.png"
       inkscape:export-xdpi="329.26001"
       inkscape:export-ydpi="329.26001" />
    <path
       style="fill:#f1637f;fill-opacity:1;stroke-width:0.26458332"
       d="m 62.531407,261.29217 c 1.7524,-0.43967 3.36875,-1.4023 4.90592,-2.92174 4.52871,-4.4765 5.8719,-10.90557 4.42543,-21.18208 -0.60475,-4.29645 -0.59202,-9.41268 0.0306,-12.31085 0.31734,-1.4771 1.96991,-5.16979 2.44502,-5.46342 0.48771,-0.30142 0.72178,0.56691 0.72584,2.69257 0.005,2.36985 -0.39961,3.30002 -1.43376,3.30002 -1.4936,0 -1.39321,1.73367 0.14649,2.52988 1.2341,0.63818 2.65007,0.16257 3.65785,-1.22862 1.02644,-1.41697 1.40044,-3.799 1.31441,-8.37159 -0.09,-4.78179 0.32937,-7.9055 1.35566,-10.09862 0.45193,-0.96575 0.89454,-1.60152 1.01889,-1.46354 0.27531,0.30547 0.81867,3.66805 0.83861,5.18971 0.032,2.43995 1.30005,4.10087 2.59983,3.40524 0.8248,-0.44142 6.16375,-5.77364 6.75949,-6.75097 0.30119,-0.49413 0.86874,-1.14925 1.26121,-1.45583 0.39247,-0.30659 1.18967,-1.41988 1.77155,-2.47399 0.58188,-1.05411 1.37385,-2.21129 1.75994,-2.57151 0.38609,-0.36023 1.18883,-1.34685 1.783875,-2.1925 0.611697,-0.86933 2.080241,-2.3337 3.379038,-3.36944 3.87329,-3.0888 4.52266,-4.00367 5.51671,-7.77224 0.2717,-1.03007 0.80251,-2.70629 1.17958,-3.72494 0.79433,-2.14584 0.91417,-4.50061 0.29045,-5.70675 -0.22346,-0.43213 -1.28064,-1.4323 -2.34929,-2.2226 -1.21641,-0.89958 -2.7884,-2.46479 -4.20371,-4.18558 -4.742163,-5.76571 -7.397063,-7.33194 -12.428313,-7.33194 -3.14972,0 -9.52981,1.55684 -13.1087,3.19872 l -1.93695,0.88862 -2.95784,-1.04331 c -3.85099,-1.35833 -5.29263,-1.39189 -8.32278,-0.19372 -3.19368,1.26283 -4.14568,1.33575 -5.89112,0.45127 -2.07698,-1.05248 -3.89032,-1.62835 -8.01996,-2.54693 -3.0782,-0.6847 -4.05336,-0.79572 -6.08541,-0.69279 -4.292468,0.21742 -6.114818,1.31453 -10.224898,6.15569 -1.04846,1.23495 -2.94513,3.0738 -4.21484,4.08634 -4.55154,3.62968 -5.95415,5.74843 -5.96504,9.01069 -0.006,1.6974 0.10317,2.1825 0.75261,3.35438 0.97222,1.75432 4.64165,5.537 7.74918,7.98835 2.98497,2.35467 6.44621,6.1513 7.48629,8.21168 0.42865,0.84915 1.21127,1.94624 1.73916,2.43798 0.527878,0.49174 1.147678,1.25126 1.377328,1.68782 0.5024,0.95506 6.34691,6.68396 7.04812,6.90871 0.63455,0.20338 1.79519,-0.65195 2.03659,-1.50085 0.10093,-0.35495 0.31907,-1.98101 0.48476,-3.61347 0.32024,-3.15523 0.46268,-3.77877 0.86324,-3.77877 0.49314,0 1.59415,2.96076 1.97055,5.29909 0.21067,1.30877 0.48738,2.65402 0.61491,2.98947 0.13596,0.35759 0.12696,1.14993 -0.0217,1.91535 -0.44335,2.28194 -0.35623,6.99276 0.15795,8.5408 0.88625,2.66826 2.63551,3.88428 4.47933,3.11388 1.54047,-0.64364 1.69345,-2.544 0.2048,-2.544 -0.60663,0 -0.83993,-0.16895 -1.09984,-0.79641 -0.57328,-1.38401 -0.35817,-5.81818 0.28225,-5.81818 0.40021,0 1.56618,2.56281 2.0834,4.57931 0.26845,1.04664 0.84613,3.21267 1.28373,4.8134 1.45374,5.31776 2.95492,12.15129 3.20911,14.60827 0.4414,4.26639 -0.30261,7.20674 -2.39905,9.48111 -1.42091,1.5415 -2.25948,1.97208 -3.84071,1.97208 -1.22827,0 -1.31439,-0.055 -3.34519,-2.13547 -1.54116,-1.57887 -2.1987,-2.0865 -2.52272,-1.9476 -0.24105,0.10334 -1.15264,0.24496 -2.02576,0.31472 -0.87313,0.0698 -1.73633,0.24638 -1.91823,0.39249 -0.66868,0.5371 -0.34501,1.54008 0.94509,2.92868 0.7017,0.75527 1.83823,2.11538 2.52562,3.02247 2.54249,3.35509 6.26266,4.84289 9.85542,3.94146 z"
       id="path4522-1"
       inkscape:connector-curvature="0"
       sodipodi:nodetypes="ccscccscccccccccscccsccccscccscsccccssscccccscccccscscsccscccccccc" />
  </g>
</svg>
